<?xml version="1.0" encoding="UTF-8" standalone="no"?>
<svg xmlns:dc="http://purl.org/dc/elements/1.1/" xmlns:cc="http://creativecommons.org/ns#" xmlns:rdf="http://www.w3.org/1999/02/22-rdf-syntax-ns#" xmlns:svg="http://www.w3.org/2000/svg" xmlns="http://www.w3.org/2000/svg" xmlns:xlink="http://www.w3.org/1999/xlink" xmlns:sodipodi="http://sodipodi.sourceforge.net/DTD/sodipodi-0.dtd" xmlns:inkscape="http://www.inkscape.org/namespaces/inkscape" width="64" height="64" viewBox="0 0 16.933333 16.933334" version="1.1" id="svg1274" inkscape:version="1.0.1 (3bc2e813f5, 2020-09-07)" sodipodi:docname="drawing.svg">
  <defs id="defs1268">
    <linearGradient inkscape:collect="always" xlink:href="#linearGradient1078" id="linearGradient16357" gradientUnits="userSpaceOnUse" gradientTransform="matrix(0.15130466,0,0,0.19997395,-169.32866,84.687846)" x1="88.595886" y1="-449.39401" x2="536.59589" y2="-449.39401"/>
    <linearGradient id="linearGradient1078">
      <stop style="stop-color:#77767b;stop-opacity:1" offset="0" id="stop1066"/>
      <stop id="stop1068" offset="0.03571429" style="stop-color:#c0bfbc;stop-opacity:1"/>
      <stop style="stop-color:#9a9996;stop-opacity:1" offset="0.07136531" id="stop1070"/>
      <stop id="stop1072" offset="0.9285714" style="stop-color:#9a9996;stop-opacity:1"/>
      <stop style="stop-color:#c0bfbc;stop-opacity:1" offset="0.96428573" id="stop1074"/>
      <stop style="stop-color:#77767b;stop-opacity:1" offset="1" id="stop1076"/>
    </linearGradient>
  </defs>
  <sodipodi:namedview id="base" pagecolor="#ffffff" bordercolor="#666666" borderopacity="1.0" inkscape:pageopacity="0.0" inkscape:pageshadow="2" inkscape:zoom="5.7745636" inkscape:cx="3.9093074" inkscape:cy="41.957155" inkscape:document-units="mm" inkscape:current-layer="layer1" inkscape:document-rotation="0" showgrid="false" units="px" inkscape:window-width="1680" inkscape:window-height="986" inkscape:window-x="0" inkscape:window-y="0" inkscape:window-maximized="1"/>
  <metadata id="metadata1271">
    <rdf:RDF>
      <cc:Work rdf:about="">
        <dc:format>image/svg+xml</dc:format>
        <dc:type rdf:resource="http://purl.org/dc/dcmitype/StillImage"/>
        <dc:title/>
      </cc:Work>
    </rdf:RDF>
  </metadata>
  <g inkscape:label="Layer 1" inkscape:groupmode="layer" id="layer1">
    <g id="g16482" transform="matrix(0.23392932,0,0,0.23392932,37.013407,17.911482)">
      <rect style="display:inline;vector-effect:none;fill:url(#linearGradient16357);fill-opacity:1;stroke:none;stroke-width:0.173945;stroke-linecap:butt;stroke-linejoin:miter;stroke-miterlimit:4;stroke-dasharray:none;stroke-dashoffset:0;stroke-opacity:1;marker:none;marker-start:none;marker-mid:none;marker-end:none;paint-order:normal;enable-background:new" id="rect16325" width="67.784492" height="60.79208" x="-155.92371" y="-65.971329" rx="4.8417487" ry="6.3991661"/>
      <rect ry="4.8396068" rx="4.8417487" y="-75.570068" x="-155.92371" height="67.191246" width="67.784492" id="rect16327" style="display:inline;vector-effect:none;fill:#deddda;fill-opacity:1;stroke:none;stroke-width:0.173945;stroke-linecap:butt;stroke-linejoin:miter;stroke-miterlimit:4;stroke-dasharray:none;stroke-dashoffset:0;stroke-opacity:1;marker:none;marker-start:none;marker-mid:none;marker-end:none;paint-order:normal;enable-background:new"/>
      <rect ry="3.1995831" y="-72.370483" x="-152.42751" height="60.79208" width="60.79208" id="rect16329" style="display:inline;vector-effect:none;fill:#3d3846;fill-opacity:1;stroke:none;stroke-width:0.00772561px;stroke-linecap:butt;stroke-linejoin:miter;stroke-miterlimit:4;stroke-dasharray:none;stroke-dashoffset:0;stroke-opacity:1;marker:none;marker-start:none;marker-mid:none;marker-end:none;paint-order:normal;enable-background:new" rx="3.5016525"/>
      <g id="g16458" transform="translate(-15.55482,-66.511757)" style="fill:#241f31;fill-opacity:1">
        <rect style="opacity:1;fill:#241f31;fill-opacity:1;stroke:none;stroke-width:0.137422;stroke-linecap:round;stroke-linejoin:round;stroke-miterlimit:4;stroke-dasharray:none;stroke-opacity:1;paint-order:stroke fill markers" id="rect16442" width="5.9313707" height="11.564425" x="-132.50963" y="20.3426" rx="2.9656854" ry="3.0624902"/>
        <path id="path16444" style="opacity:1;fill:#241f31;fill-opacity:1;stroke:none;stroke-width:0.137422;stroke-linecap:round;stroke-linejoin:round;stroke-miterlimit:4;stroke-dasharray:none;stroke-opacity:1;paint-order:stroke fill markers" d="m -128.74084,0.19562888 c -1.43139,0.006031 -3.40973,0.41964245 -3.53498,3.58923462 l -0.01,6.1141165 c -0.003,1.696619 1.32267,3.062659 2.96565,3.062659 1.643,0 2.96567,-1.366038 2.96567,-3.062659 V 6.1398036 h 3.75567 c 1.69662,0 3.06266,-1.3226712 3.06266,-2.9656602 0,-1.6429891 -1.36604,-2.96210969 -3.06266,-2.96566022 z" sodipodi:nodetypes="ccssscsssc"/>
        <path id="path16446" style="opacity:1;fill:#241f31;fill-opacity:1;stroke:none;stroke-width:0.137422;stroke-linecap:round;stroke-linejoin:round;stroke-miterlimit:4;stroke-dasharray:none;stroke-opacity:1;paint-order:stroke fill markers" d="m -83.98847,0.19562888 c 1.431394,0.006031 3.409737,0.41964245 3.53499,3.58923462 l 0.0098,6.1141165 c 0.0027,1.696619 -1.322671,3.062659 -2.96566,3.062659 -1.642991,0 -2.96566,-1.366038 -2.96566,-3.062659 V 6.1398036 h -3.755672 c -1.69662,0 -3.062659,-1.3226712 -3.062659,-2.9656602 0,-1.6429891 1.366044,-2.96210969 3.062659,-2.96566022 z" sodipodi:nodetypes="ccssscsssc"/>
        <rect style="opacity:1;fill:#241f31;fill-opacity:1;stroke:none;stroke-width:0.137422;stroke-linecap:round;stroke-linejoin:round;stroke-miterlimit:4;stroke-dasharray:none;stroke-opacity:1;paint-order:stroke fill markers" id="rect16448" width="5.9313707" height="11.564425" x="-6.1269999" y="100.58244" rx="2.9656854" ry="3.0624902" transform="matrix(0,-1,-1,0,0,0)"/>
        <path id="path16450" style="opacity:1;fill:#241f31;fill-opacity:1;stroke:none;stroke-width:0.137422;stroke-linecap:round;stroke-linejoin:round;stroke-miterlimit:4;stroke-dasharray:none;stroke-opacity:1;paint-order:stroke fill markers" d="m -128.74084,52.053995 c -1.43139,-0.006 -3.40973,-0.419642 -3.53498,-3.589235 l -0.01,-6.114116 c -0.003,-1.69662 1.32267,-3.062659 2.96565,-3.062659 1.643,0 2.96567,1.366038 2.96567,3.062659 v 3.759176 h 3.75567 c 1.69662,0 3.06266,1.322671 3.06266,2.965661 0,1.642989 -1.36604,2.962109 -3.06266,2.96566 z" sodipodi:nodetypes="ccssscsssc"/>
        <path id="path16452" style="opacity:1;fill:#241f31;fill-opacity:1;stroke:none;stroke-width:0.137422;stroke-linecap:round;stroke-linejoin:round;stroke-miterlimit:4;stroke-dasharray:none;stroke-opacity:1;paint-order:stroke fill markers" d="m -83.98847,52.053995 c 1.431394,-0.006 3.409737,-0.419642 3.53499,-3.589235 l 0.0098,-6.114116 c 0.0027,-1.69662 -1.322671,-3.062659 -2.96566,-3.062659 -1.642991,0 -2.96566,1.366038 -2.96566,3.062659 v 3.759176 h -3.755672 c -1.69662,0 -3.062659,1.322671 -3.062659,2.965661 0,1.642989 1.366044,2.962109 3.062659,2.96566 z" sodipodi:nodetypes="ccssscsssc"/>
        <rect style="opacity:1;fill:#241f31;fill-opacity:1;stroke:none;stroke-width:0.137422;stroke-linecap:round;stroke-linejoin:round;stroke-miterlimit:4;stroke-dasharray:none;stroke-opacity:1;paint-order:stroke fill markers" id="rect16454" width="5.9313707" height="11.564425" x="46.122623" y="100.58244" rx="2.9656854" ry="3.0624902" transform="rotate(90)"/>
        <rect style="opacity:1;fill:#241f31;fill-opacity:1;stroke:none;stroke-width:0.137422;stroke-linecap:round;stroke-linejoin:round;stroke-miterlimit:4;stroke-dasharray:none;stroke-opacity:1;paint-order:stroke fill markers" id="rect16456" width="5.9313707" height="11.564425" x="-86.375015" y="-31.907021" rx="2.9656854" ry="3.0624902" transform="scale(1,-1)"/>
      </g>
      <g id="g16408" transform="translate(-15.55482,-68.099257)">
        <rect style="opacity:1;fill:#fefefe;fill-opacity:1;stroke:none;stroke-width:0.137422;stroke-linecap:round;stroke-linejoin:round;stroke-miterlimit:4;stroke-dasharray:none;stroke-opacity:1;paint-order:stroke fill markers" id="rect16384" width="5.9313707" height="11.564425" x="-132.50963" y="20.3426" rx="2.9656854" ry="3.0624902"/>
        <path id="path16386" style="opacity:1;fill:#ffffff;fill-opacity:1;stroke:none;stroke-width:0.137422;stroke-linecap:round;stroke-linejoin:round;stroke-miterlimit:4;stroke-dasharray:none;stroke-opacity:1;paint-order:stroke fill markers" d="m -128.74084,0.19562888 c -1.43139,0.006031 -3.40973,0.41964245 -3.53498,3.58923462 l -0.01,6.1141165 c -0.003,1.696619 1.32267,3.062659 2.96565,3.062659 1.643,0 2.96567,-1.366038 2.96567,-3.062659 V 6.1398036 h 3.75567 c 1.69662,0 3.06266,-1.3226712 3.06266,-2.9656602 0,-1.6429891 -1.36604,-2.96210969 -3.06266,-2.96566022 z" sodipodi:nodetypes="ccssscsssc"/>
        <path id="path16388" style="opacity:1;fill:#ffffff;fill-opacity:1;stroke:none;stroke-width:0.137422;stroke-linecap:round;stroke-linejoin:round;stroke-miterlimit:4;stroke-dasharray:none;stroke-opacity:1;paint-order:stroke fill markers" d="m -83.98847,0.19562888 c 1.431394,0.006031 3.409737,0.41964245 3.53499,3.58923462 l 0.0098,6.1141165 c 0.0027,1.696619 -1.322671,3.062659 -2.96566,3.062659 -1.642991,0 -2.96566,-1.366038 -2.96566,-3.062659 V 6.1398036 h -3.755672 c -1.69662,0 -3.062659,-1.3226712 -3.062659,-2.9656602 0,-1.6429891 1.366044,-2.96210969 3.062659,-2.96566022 z" sodipodi:nodetypes="ccssscsssc"/>
        <rect style="opacity:1;fill:#fefefe;fill-opacity:1;stroke:none;stroke-width:0.137422;stroke-linecap:round;stroke-linejoin:round;stroke-miterlimit:4;stroke-dasharray:none;stroke-opacity:1;paint-order:stroke fill markers" id="rect16390" width="5.9313707" height="11.564425" x="-6.1269999" y="100.58244" rx="2.9656854" ry="3.0624902" transform="matrix(0,-1,-1,0,0,0)"/>
        <path id="path16392" style="opacity:1;fill:#ffffff;fill-opacity:1;stroke:none;stroke-width:0.137422;stroke-linecap:round;stroke-linejoin:round;stroke-miterlimit:4;stroke-dasharray:none;stroke-opacity:1;paint-order:stroke fill markers" d="m -128.74084,52.053995 c -1.43139,-0.006 -3.40973,-0.419642 -3.53498,-3.589235 l -0.01,-6.114116 c -0.003,-1.69662 1.32267,-3.062659 2.96565,-3.062659 1.643,0 2.96567,1.366038 2.96567,3.062659 v 3.759176 h 3.75567 c 1.69662,0 3.06266,1.322671 3.06266,2.965661 0,1.642989 -1.36604,2.962109 -3.06266,2.96566 z" sodipodi:nodetypes="ccssscsssc"/>
        <path id="path16394" style="opacity:1;fill:#ffffff;fill-opacity:1;stroke:none;stroke-width:0.137422;stroke-linecap:round;stroke-linejoin:round;stroke-miterlimit:4;stroke-dasharray:none;stroke-opacity:1;paint-order:stroke fill markers" d="m -83.98847,52.053995 c 1.431394,-0.006 3.409737,-0.419642 3.53499,-3.589235 l 0.0098,-6.114116 c 0.0027,-1.69662 -1.322671,-3.062659 -2.96566,-3.062659 -1.642991,0 -2.96566,1.366038 -2.96566,3.062659 v 3.759176 h -3.755672 c -1.69662,0 -3.062659,1.322671 -3.062659,2.965661 0,1.642989 1.366044,2.962109 3.062659,2.96566 z" sodipodi:nodetypes="ccssscsssc"/>
        <rect style="opacity:1;fill:#fefefe;fill-opacity:1;stroke:none;stroke-width:0.137422;stroke-linecap:round;stroke-linejoin:round;stroke-miterlimit:4;stroke-dasharray:none;stroke-opacity:1;paint-order:stroke fill markers" id="rect16396" width="5.9313707" height="11.564425" x="46.122623" y="100.58244" rx="2.9656854" ry="3.0624902" transform="rotate(90)"/>
        <rect style="opacity:1;fill:#fefefe;fill-opacity:1;stroke:none;stroke-width:0.137422;stroke-linecap:round;stroke-linejoin:round;stroke-miterlimit:4;stroke-dasharray:none;stroke-opacity:1;paint-order:stroke fill markers" id="rect16398" width="5.9313707" height="11.564425" x="-86.375015" y="-31.907021" rx="2.9656854" ry="3.0624902" transform="scale(1,-1)"/>
      </g>
      <path style="opacity:1;fill:#e01b24;fill-opacity:1;stroke:none;stroke-width:0.182298;stroke-linecap:round;stroke-linejoin:round;stroke-miterlimit:4;stroke-dasharray:none;stroke-opacity:1;paint-order:stroke fill markers" id="path16410" sodipodi:type="arc" sodipodi:cx="-108.74815" sodipodi:cy="-28.811274" sodipodi:rx="4.0219769" sodipodi:ry="4.0219769" sodipodi:start="0.13375139" sodipodi:end="0.11574448" sodipodi:open="true" sodipodi:arc-type="arc" d="m -104.7621,-28.274931 a 4.0219769,4.0219769 0 0 1 -4.50445,3.452087 4.0219769,4.0219769 0 0 1 -3.47233,-4.488863 4.0219769,4.0219769 0 0 1 4.47319,-3.492501 4.0219769,4.0219769 0 0 1 3.5126,4.457417"/>
    </g>
  </g>
</svg>